<?xml version="1.0" standalone="no"?>
<!DOCTYPE svg PUBLIC "-//W3C//DTD SVG 20010904//EN"
 "http://www.w3.org/TR/2001/REC-SVG-20010904/DTD/svg10.dtd">
<svg version="1.0" xmlns="http://www.w3.org/2000/svg"
 width="1772.000000pt" height="1772.000000pt" viewBox="0 0 1772.000000 1772.000000"
 preserveAspectRatio="xMidYMid meet">
<metadata>
Created by potrace 1.13, written by Peter Selinger 2001-2015
</metadata>
<g transform="translate(0.000000,1772.000000) scale(0.100000,-0.100000)"
fill="#000000" stroke="none">
<path d="M8415 17191 c-66 -4 -129 -12 -140 -18 -79 -44 -91 -144 -26 -207 29
-28 38 -30 208 -47 977 -101 1861 -360 2768 -809 1790 -886 3249 -2358 4194
-4230 554 -1096 869 -2191 977 -3400 21 -237 30 -903 15 -1152 -59 -994 -281
-1912 -661 -2738 -84 -183 -86 -191 -60 -245 33 -69 105 -93 176 -59 26 13 54
47 121 153 183 289 360 613 501 921 607 1323 859 2816 727 4300 -93 1036 -385
2070 -840 2965 -638 1255 -1621 2354 -2810 3140 -1238 818 -2627 1292 -4135
1410 -219 17 -831 27 -1015 16z"/>
<path d="M1876 13415 c-37 -20 -37 -20 -160 -215 -927 -1478 -1354 -3329
-1191 -5160 86 -957 336 -1892 738 -2756 207 -445 531 -982 845 -1399 807
-1073 1863 -1942 3065 -2519 1013 -488 2039 -758 3217 -848 182 -14 946 -17
1022 -5 119 20 162 142 79 221 -28 27 -38 29 -208 47 -983 103 -1861 360
-2768 809 -1790 886 -3248 2356 -4194 4230 -565 1117 -877 2218 -983 3470 -18
209 -18 1030 0 1240 81 960 292 1796 651 2579 86 187 87 192 61 246 -33 68
-109 94 -174 60z"/>
<path d="M14235 11074 c-405 -42 -707 -146 -1015 -349 -126 -83 -303 -255
-377 -365 -148 -222 -216 -456 -217 -745 -1 -127 3 -162 22 -230 44 -151 128
-277 250 -374 149 -119 316 -185 725 -287 320 -80 407 -112 485 -179 23 -21
52 -54 62 -76 46 -89 10 -231 -89 -356 -35 -44 -58 -60 -164 -112 -139 -68
-199 -84 -372 -102 -431 -43 -856 102 -1166 398 -69 66 -80 73 -116 73 l-40 0
-72 -222 c-40 -123 -107 -319 -148 -437 -72 -203 -75 -215 -58 -228 10 -7 75
-35 144 -62 390 -152 627 -195 1071 -196 260 0 370 10 585 51 570 111 1080
456 1304 885 113 215 164 409 165 624 0 136 -16 212 -65 313 -36 74 -128 176
-215 238 -137 98 -386 198 -634 254 -180 40 -420 115 -500 155 -77 39 -136
101 -146 153 -12 62 3 151 35 216 22 45 50 78 103 124 86 75 140 102 273 139
92 26 114 28 275 28 198 -1 290 -15 454 -72 181 -63 338 -152 482 -274 66 -56
88 -69 115 -69 l34 0 106 420 105 421 -75 35 c-163 78 -449 158 -681 190 -101
15 -557 27 -645 18z"/>
<path d="M4394 11032 c-18 -12 -237 -323 -414 -589 -309 -462 -587 -922 -1018
-1678 -135 -236 -328 -576 -430 -755 -102 -179 -236 -412 -299 -519 -63 -106
-117 -199 -120 -207 -4 -12 72 -14 499 -14 l504 0 189 363 c166 315 193 362
215 366 14 2 264 0 556 -4 l530 -7 28 -242 c16 -132 36 -293 45 -356 l16 -115
513 -3 c486 -2 513 -1 508 15 -8 30 -73 465 -100 673 -109 841 -159 1635 -160
2538 l-1 542 -525 0 c-289 0 -530 -4 -536 -8z m146 -1882 c6 -190 14 -355 17
-367 l5 -23 -332 0 -332 0 47 88 c113 208 417 741 541 945 l29 47 7 -172 c4
-95 12 -328 18 -518z"/>
<path d="M6925 11028 c-3 -7 -21 -58 -41 -113 -303 -837 -638 -2006 -859
-2995 -61 -274 -137 -642 -132 -646 1 -1 228 -4 505 -6 499 -4 503 -4 507 17
105 464 304 1294 336 1392 l11 33 741 2 741 3 107 395 c58 217 104 398 102
403 -2 4 -335 7 -740 7 l-735 0 6 28 c6 22 152 526 200 687 l12 40 801 3 802
2 15 53 c34 118 186 688 186 697 0 6 -465 10 -1280 10 -1015 0 -1282 -3 -1285
-12z"/>
<path d="M10496 11018 c-7 -13 -116 -196 -242 -408 -517 -875 -1305 -2165
-1860 -3047 -101 -160 -184 -294 -184 -297 0 -3 227 -6 505 -6 l506 0 72 113
c41 61 142 223 227 360 l154 247 574 0 574 0 -3 -357 -4 -358 93 0 c50 0 281
1 512 3 l420 2 0 428 c0 747 -33 1397 -111 2172 -42 424 -136 1131 -155 1161
-3 5 -231 9 -534 9 l-530 0 -14 -22z m298 -1533 c9 -192 19 -434 22 -537 l7
-188 -342 0 c-188 0 -340 3 -338 8 160 272 413 709 503 869 65 116 122 208
125 205 4 -4 14 -164 23 -357z"/>
<path d="M7135 7176 c-130 -31 -197 -67 -273 -150 -52 -57 -89 -132 -127 -260
l-28 -95 -111 -3 -111 -3 -37 -135 c-20 -74 -37 -141 -37 -147 -1 -10 26 -13
104 -13 71 0 105 -4 105 -11 0 -9 -327 -1241 -356 -1341 -5 -17 10 -18 213
-18 l219 0 61 228 c33 125 116 433 183 684 l123 457 126 3 126 3 37 135 c21
74 37 141 38 148 0 9 -30 12 -120 12 -136 0 -132 -3 -100 83 35 92 78 119 199
123 l85 2 39 147 c22 80 36 149 32 153 -14 14 -328 12 -390 -2z"/>
<path d="M7746 6845 l-49 -174 -111 -3 -111 -3 -32 -120 c-18 -66 -35 -132
-38 -147 l-7 -28 106 0 c75 0 106 -3 106 -12 0 -6 -60 -237 -134 -512 -74
-276 -140 -532 -147 -569 -41 -238 50 -307 386 -293 83 3 166 9 186 12 l37 6
39 147 40 146 -94 5 c-108 6 -123 16 -123 84 0 22 57 253 127 513 l126 473
123 0 c68 0 125 4 128 9 7 11 76 266 76 280 0 7 -39 11 -120 11 -89 0 -120 3
-120 13 0 6 20 84 45 171 25 87 45 161 45 162 0 2 -98 4 -218 4 l-218 0 -48
-175z"/>
<path d="M4145 6695 c-157 -29 -271 -84 -374 -181 -42 -40 -93 -100 -114 -135
-85 -144 -114 -329 -69 -432 50 -112 110 -155 345 -247 205 -81 241 -100 262
-140 32 -61 3 -170 -61 -234 -87 -87 -265 -100 -335 -25 -43 46 -48 141 -13
232 6 16 -6 17 -192 15 l-199 -3 -18 -65 c-27 -99 -33 -224 -14 -291 33 -111
127 -181 289 -215 55 -12 112 -15 233 -11 189 6 249 19 391 87 165 80 284 213
338 378 65 200 57 316 -30 412 -51 56 -115 89 -309 160 -184 67 -224 87 -249
125 -25 38 -20 109 11 166 64 118 256 168 336 87 29 -29 30 -30 25 -119 l-5
-89 193 0 193 0 11 39 c62 233 13 383 -148 453 -109 46 -342 62 -497 33z"/>
<path d="M5635 6703 c-64 -9 -153 -36 -220 -67 -262 -122 -430 -389 -549 -876
-45 -180 -60 -298 -54 -417 7 -130 34 -200 102 -269 91 -90 201 -118 436 -112
142 4 163 7 249 37 115 39 193 85 276 162 152 142 270 381 355 719 44 172 60
281 60 399 0 160 -32 254 -109 324 -86 78 -195 108 -385 106 -72 -1 -144 -4
-161 -6z m160 -307 c81 -53 74 -242 -22 -591 -112 -409 -233 -575 -403 -552
-154 20 -163 182 -34 636 102 357 173 476 314 522 34 11 118 3 145 -15z"/>
<path d="M11175 6700 c-27 -5 -87 -21 -133 -36 -192 -62 -331 -198 -403 -394
-47 -130 -60 -120 161 -120 144 0 192 3 195 13 46 132 87 192 155 227 83 42
199 34 247 -18 23 -25 25 -33 21 -98 -4 -56 -12 -84 -35 -125 -43 -76 -95
-102 -311 -156 -306 -76 -405 -116 -519 -209 -97 -80 -187 -265 -214 -443 -24
-160 24 -287 133 -346 47 -26 64 -30 161 -33 194 -7 321 36 435 149 l62 61 0
-70 c0 -110 -18 -102 219 -102 l206 0 1 103 c2 96 8 124 108 497 207 765 208
769 187 872 -22 105 -94 171 -230 211 -75 22 -358 33 -446 17z m99 -997 c-19
-71 -39 -148 -46 -173 -38 -152 -162 -261 -314 -276 -112 -10 -157 51 -134
184 30 175 116 256 338 316 51 14 114 37 140 50 26 14 48 25 49 26 0 0 -14
-57 -33 -127z"/>
<path d="M12940 6687 c-95 -32 -156 -71 -242 -157 -43 -41 -78 -73 -78 -70 0
3 11 47 25 98 14 51 25 98 25 103 0 6 -81 8 -207 7 l-208 -3 -222 -825 c-122
-454 -222 -828 -222 -832 -1 -5 97 -8 217 -8 l218 0 138 518 c77 284 150 539
163 565 73 147 226 225 419 215 l82 -4 54 200 c30 111 53 204 51 209 -9 16
-149 6 -213 -16z"/>
<path d="M13727 6694 c-169 -37 -275 -93 -391 -209 -161 -160 -264 -394 -362
-820 -38 -168 -45 -346 -16 -442 37 -121 107 -189 240 -235 60 -20 86 -23 237
-23 198 0 278 17 405 87 88 48 207 164 258 250 32 54 93 188 107 236 l6 22
-194 0 -195 0 -40 -83 c-75 -153 -156 -220 -269 -221 -55 -1 -65 2 -92 29 -41
39 -55 92 -48 190 5 69 47 261 63 287 3 4 197 8 432 8 l428 0 32 133 c60 245
76 402 51 519 -31 146 -124 236 -281 273 -81 19 -280 18 -371 -1z m200 -299
c54 -36 65 -114 36 -272 l-16 -93 -219 0 c-174 0 -218 3 -218 13 0 26 50 160
76 204 51 88 118 146 188 164 44 11 124 3 153 -16z"/>
<path d="M8406 6588 c-5 -64 -76 -1548 -76 -1580 0 -5 114 -8 253 -8 l254 0
259 582 c177 398 260 574 262 556 3 -23 -70 -992 -83 -1096 l-5 -42 251 2 251
3 404 829 c222 456 404 831 404 833 0 2 -94 3 -208 3 l-208 0 -260 -589 c-142
-324 -260 -588 -262 -586 -1 1 18 255 43 565 25 309 45 573 45 587 l0 23 -237
-2 -237 -3 -260 -583 c-143 -321 -262 -580 -263 -575 -1 4 23 266 55 581 32
315 56 575 53 577 -2 3 -100 5 -217 5 l-212 0 -6 -82z"/>
</g>
</svg>
